<?xml version="1.0" encoding="UTF-8"?>
<svg xmlns="http://www.w3.org/2000/svg" viewBox="0 0 512 512">
  <rect width="512" height="512" fill="#0c0e0b" rx="110"/>
  <g transform="translate(61,37) scale(0.495)">
    <path fill="#ffffff" d="M394.56,1037.53c-53.25,0-104.93-10.44-153.59-31.02-46.99-19.87-89.18-48.32-125.41-84.55-36.23-36.23-64.67-78.42-84.55-125.41C10.44,747.89,0,696.22,0,642.97c0-93.33,33.19-183.88,93.44-254.97,59.55-70.26,142.04-117.7,232.26-133.58,45.03-7.94,92.32-7.97,137.33-.06,90.3,15.8,172.89,63.21,232.52,133.5,60.34,71.12,93.57,161.72,93.57,255.12,0,53.25-10.44,104.93-31.02,153.59-19.87,46.99-48.32,89.18-84.55,125.41-36.23,36.23-78.42,64.67-125.41,84.55-48.66,20.58-100.34,31.02-153.59,31.02ZM394.56,300.68c-20.08,0-40.19,1.75-59.78,5.21-163.7,28.81-282.5,170.57-282.5,337.08,0,188.74,153.55,342.3,342.29,342.3s342.3-153.55,342.3-342.3c0-166.68-118.95-308.46-282.85-337.13-19.48-3.42-39.48-5.15-59.45-5.15Z"/>
    <path fill="#ffffff" d="M330.23,306.28c-5.8,0-11.49-1.93-16.12-5.56-5.84-4.58-9.46-11.42-9.96-18.83l-5.64-84.4c-.48-7.22,2.05-14.31,6.99-19.59,4.94-5.28,11.85-8.28,19.09-8.28h139.55c7.23,0,14.14,3,19.09,8.28,4.94,5.28,7.47,12.38,6.99,19.6l-5.64,84.34c-.5,7.4-4.11,14.24-9.95,18.82-5.84,4.58-13.34,6.46-20.65,5.18-39.04-6.85-80.14-6.84-119.22.06-1.51.27-3.03.4-4.54.4ZM352.53,221.88l1.91,28.55c26.49-2.68,53.38-2.69,79.86-.04l1.91-28.51h-83.68Z"/>
    <path fill="#3aaa35" d="M691.4,565.22c15.54,89.19-95.43,264.48-233.08,68.62-39.58-56.32-118.31-68.51-166.8-39.61-93.33,55.62-159.23,43.62-196.66-15.32-.12-.08-.23-.16-.35-.24-4.52,20.95-6.92,42.7-6.92,65,0,169.54,137.44,306.97,306.97,306.97s306.97-137.44,306.97-306.97c0-27.12-3.53-53.41-10.13-78.45Z"/>
    <path fill="#95c11f" d="M560.79,525.38c-34.39,60.05-75.34,72.71-129.23,30.02-47.49-37.62-102.06-19.98-141.73-.38-64.69,31.96-107.39,84.09-195.33,23.64,37.44,58.95,103.68,71.18,197.01,15.56,48.49-28.9,127.22-16.71,166.8,39.61,137.65,195.86,248.63,20.57,233.08-68.62-5.54-21.03-13.26-41.18-22.9-60.2-20.47-36.56-55.63-64.27-107.71,20.36Z"/>
    <circle fill="#3aaa35" cx="170.22" cy="509" r="15.82"/>
    <circle fill="#95c11f" cx="272.36" cy="429.88" r="27.33"/>
    <circle fill="#95c11f" cx="341.41" cy="490.3" r="12.95"/>
    <circle fill="#95c11f" cx="460.81" cy="398.23" r="11.51"/>
  </g>
</svg>
