<?xml version="1.0" encoding="UTF-8"?>
<svg id="Capa_1" xmlns="http://www.w3.org/2000/svg" version="1.1" viewBox="0 0 512 512">
  <!-- Generator: Adobe Illustrator 29.6.1, SVG Export Plug-In . SVG Version: 2.1.1 Build 9)  -->
  <defs>
    <style>
      .st0 {
        fill: #0c0e0b;
      }

      .st1 {
        fill: #fff;
      }

      .st2 {
        fill: #95c11f;
      }

      .st3 {
        fill: #3aaa35;
      }
    </style>
  </defs>
  <rect class="st0" width="512" height="512" rx="110" ry="110"/>
  <g>
    <path class="st1" d="M256,470.8c-26.36,0-51.94-5.17-76.03-15.35-23.26-9.84-44.14-23.92-62.08-41.85-17.93-17.93-32.01-38.82-41.85-62.08-10.18-24.09-15.35-49.66-15.35-76.02,0-46.2,16.43-91.02,46.25-126.21,29.48-34.78,70.31-58.26,114.97-66.12,22.29-3.93,45.7-3.95,67.98-.03,44.7,7.82,85.58,31.29,115.1,66.08,29.87,35.2,46.32,80.05,46.32,126.28,0,26.36-5.17,51.94-15.35,76.03-9.84,23.26-23.92,44.14-41.85,62.08-17.93,17.93-38.82,32.01-62.08,41.85-24.09,10.19-49.67,15.35-76.03,15.35h0ZM256,106.06c-9.94,0-19.89.87-29.59,2.58-81.03,14.26-139.84,84.43-139.84,166.85,0,93.43,76.01,169.44,169.43,169.44s169.44-76.01,169.44-169.44c0-82.51-58.88-152.69-140.01-166.88-9.64-1.69-19.54-2.55-29.43-2.55h0Z"/>
    <path class="st1" d="M224.16,108.83c-2.87,0-5.69-.96-7.98-2.75-2.89-2.27-4.68-5.65-4.93-9.32l-2.79-41.78c-.24-3.57,1.01-7.08,3.46-9.7s5.87-4.1,9.45-4.1h69.08c3.58,0,7,1.49,9.45,4.1,2.45,2.61,3.7,6.13,3.46,9.7l-2.79,41.75c-.25,3.66-2.03,7.05-4.93,9.32-2.89,2.27-6.6,3.2-10.22,2.56-19.32-3.39-39.67-3.39-59.01.03-.75.13-1.5.2-2.25.2h0ZM235.2,67.06l.95,14.13c13.11-1.33,26.42-1.33,39.53-.02l.95-14.11s-41.42,0-41.42,0Z"/>
    <path class="st3" d="M402.94,237.01c7.69,44.15-47.24,130.92-115.37,33.97-19.59-27.88-58.56-33.91-82.57-19.61-46.2,27.53-78.82,21.59-97.35-7.58-.06-.04-.11-.08-.17-.12-2.24,10.37-3.43,21.14-3.43,32.18,0,83.92,68.03,151.95,151.95,151.95s151.95-68.03,151.95-151.95c0-13.42-1.75-26.44-5.01-38.83h0Z"/>
    <path class="st2" d="M338.28,217.29c-17.02,29.72-37.29,35.99-63.97,14.86-23.51-18.62-50.52-9.89-70.16-.19-32.02,15.82-53.16,41.62-96.69,11.7,18.53,29.18,51.32,35.23,97.52,7.7,24-14.31,62.97-8.27,82.57,19.61,68.14,96.95,123.07,10.18,115.37-33.97-2.74-10.41-6.56-20.38-11.34-29.8-10.13-18.1-27.54-31.81-53.32,10.08h0Z"/>
    <circle class="st3" cx="144.95" cy="209.18" r="7.83"/>
    <circle class="st2" cx="195.51" cy="170.02" r="13.53"/>
    <circle class="st2" cx="229.69" cy="199.92" r="6.41"/>
    <circle class="st2" cx="288.79" cy="154.35" r="5.7"/>
  </g>
</svg>